<?xml version="1.0" standalone="no"?>
<!DOCTYPE svg PUBLIC "-//W3C//DTD SVG 20010904//EN"
 "http://www.w3.org/TR/2001/REC-SVG-20010904/DTD/svg10.dtd">
<svg version="1.0" xmlns="http://www.w3.org/2000/svg"
 width="716.000000pt" height="716.000000pt" viewBox="0 0 716.000000 716.000000"
 preserveAspectRatio="xMidYMid meet">

<g transform="translate(0.000000,716.000000) scale(0.100000,-0.100000)"
fill="#000000" stroke="none">
<path d="M3420 6724 c-70 -7 -250 -33 -300 -44 -382 -84 -537 -137 -825 -285
-271 -138 -480 -282 -685 -472 -506 -470 -816 -1017 -955 -1683 -73 -349 -75
-814 -4 -1195 70 -377 220 -753 431 -1084 124 -195 228 -322 418 -512 224
-225 374 -344 607 -482 524 -311 1043 -447 1658 -434 559 11 1038 146 1515
427 69 40 144 87 168 104 435 313 734 643 974 1076 96 172 202 423 247 580 5
19 18 67 29 105 27 96 58 247 79 390 26 171 25 648 0 820 -33 221 -83 439
-134 585 -170 487 -431 897 -789 1241 -148 143 -361 312 -498 395 -91 55 -111
67 -212 120 -319 169 -606 262 -1019 330 -88 15 -600 27 -705 18z m241 -214
c22 -12 26 -59 7 -78 -7 -7 -24 -12 -38 -12 -33 0 -50 17 -50 52 0 40 40 59
81 38z m273 -16 c48 -48 -25 -113 -76 -67 -34 31 -12 83 37 83 13 0 31 -7 39
-16z m-530 -10 c19 -18 21 -55 4 -72 -29 -29 -98 -4 -98 35 0 44 63 69 94 37z
m794 -16 c22 -22 14 -67 -13 -80 -37 -17 -75 3 -75 40 0 35 16 52 50 52 14 0
31 -5 38 -12z m-1074 -14 c26 -10 37 -39 26 -68 -8 -21 -16 -26 -43 -26 -18 0
-38 5 -45 12 -19 19 -14 55 10 72 25 18 30 19 52 10z m1330 -39 c20 -15 25
-60 8 -77 -16 -16 -72 -14 -83 3 -14 22 -11 51 8 71 19 21 41 23 67 3z m-1572
-42 c22 -20 23 -46 2 -67 -20 -21 -53 -20 -76 1 -22 20 -23 41 -1 65 20 22 51
23 75 1z m1826 -39 c12 -8 22 -26 22 -39 0 -23 -32 -55 -55 -55 -17 0 -55 39
-55 55 0 18 35 55 53 55 7 0 23 -7 35 -16z m-2077 -44 c22 -12 26 -62 7 -78
-42 -33 -90 -15 -90 33 0 45 41 67 83 45z m2317 -56 c24 -17 30 -62 10 -82
-29 -29 -88 1 -88 44 0 19 32 54 50 54 3 0 16 -7 28 -16z m-1128 -61 c81 -56
117 -99 135 -159 28 -96 15 -145 -60 -231 -54 -63 -116 -88 -209 -84 -157 7
-256 138 -224 298 13 64 59 122 132 163 44 26 61 30 126 30 55 0 82 -5 100
-17z m-1429 -3 c39 -21 11 -90 -37 -90 -14 0 -30 10 -40 25 -15 23 -15 27 0
50 17 26 45 32 77 15z m749 -77 c5 -16 16 -41 25 -56 17 -32 20 -67 6 -67 -5
0 -20 15 -34 34 -50 65 -155 65 -218 0 -92 -95 -12 -317 123 -338 76 -12 151
26 184 93 34 71 59 47 28 -27 -22 -53 -61 -91 -122 -118 -69 -31 -126 -31
-187 1 -78 42 -121 108 -135 207 -12 85 8 145 64 195 41 36 126 73 172 73 10
1 30 7 44 15 35 20 39 19 50 -12z m1180 8 c19 -6 64 -18 100 -27 93 -24 178
-54 189 -68 9 -11 -1 -91 -13 -104 -10 -9 -26 19 -26 45 0 38 -40 71 -105 87
-48 12 -62 13 -73 3 -11 -11 -52 -142 -52 -166 0 -5 30 -17 66 -27 l67 -18 23
29 c30 38 41 26 20 -25 -9 -22 -16 -56 -16 -75 0 -19 -5 -35 -10 -35 -11 0
-15 7 -24 51 -4 21 -17 31 -61 47 -30 12 -61 19 -69 16 -9 -3 -19 -33 -26 -74
-13 -80 -5 -106 41 -122 29 -10 38 -31 19 -43 -6 -4 -30 3 -53 16 -23 12 -58
26 -77 30 -93 21 -105 26 -105 39 0 10 13 16 35 18 48 5 57 15 71 80 6 31 15
62 20 67 4 6 11 31 15 55 3 25 13 64 21 87 18 50 12 73 -27 96 -16 10 -30 23
-30 29 0 10 14 8 80 -11z m874 -3 c9 -12 16 -28 16 -35 0 -17 -36 -53 -53 -53
-20 0 -57 39 -57 60 0 47 67 67 94 28z m-3033 -58 c25 -14 25 -62 -1 -85 -16
-15 -26 -17 -48 -9 -37 13 -43 65 -10 88 26 19 33 19 59 6z m3254 -90 c27 -29
10 -74 -28 -78 -49 -6 -78 38 -50 77 18 27 55 27 78 1z m-471 -99 c39 -26 94
-60 121 -75 71 -38 125 -77 125 -91 0 -19 -40 -95 -50 -95 -6 0 -9 22 -8 50 3
57 -16 84 -88 122 -34 18 -48 21 -61 12 -22 -14 -96 -142 -88 -153 7 -13 102
-61 119 -61 7 0 19 7 26 15 7 8 16 15 21 15 16 0 9 -26 -11 -45 -10 -9 -27
-37 -36 -61 -16 -43 -41 -51 -30 -10 3 12 3 31 0 42 -6 23 -98 89 -113 80 -5
-4 -24 -34 -41 -68 -26 -54 -29 -66 -19 -90 6 -15 22 -34 35 -43 14 -9 22 -20
19 -25 -11 -18 -44 -10 -69 17 -14 15 -56 43 -93 63 -83 45 -94 65 -32 56 24
-3 49 -3 55 2 7 4 29 36 50 70 135 221 142 242 99 282 -22 20 -25 40 -8 40 4
0 38 -22 77 -49z m-2990 16 c20 -29 11 -62 -21 -76 -56 -25 -101 49 -51 83 31
22 55 20 72 -7z m3674 -85 c16 -21 15 -47 -4 -66 -23 -24 -61 -20 -80 9 -38
58 40 111 84 57z m-3864 -104 c20 -57 -65 -96 -94 -43 -11 21 -10 28 4 50 24
37 76 32 90 -7z m4046 -78 c26 -26 25 -52 0 -75 -16 -15 -26 -17 -48 -9 -37
13 -52 57 -27 84 23 25 49 26 75 0z m-3603 -57 c35 -23 53 -70 46 -120 l-5
-41 54 -11 c82 -17 161 -29 173 -26 5 2 22 6 38 9 23 6 26 9 17 26 -22 41 25
76 61 44 24 -21 25 -53 2 -61 -10 -4 -40 -26 -67 -50 -42 -38 -54 -43 -96 -43
-26 0 -65 6 -86 14 -54 18 -127 28 -158 20 -45 -11 -42 -38 10 -99 50 -58 75
-67 110 -40 26 20 44 19 44 -3 0 -10 -16 -26 -37 -37 -20 -11 -57 -40 -82 -65
-43 -42 -64 -43 -42 -1 16 29 1 56 -68 131 -34 35 -61 66 -61 68 0 2 -23 28
-52 58 -51 54 -73 63 -108 44 -26 -14 -33 3 -11 26 32 34 153 138 180 156 34
22 105 23 138 1z m-639 -39 c26 -18 28 -41 6 -72 -20 -30 -59 -29 -80 3 -19
29 -11 63 19 75 30 12 30 12 55 -6z m3882 -41 c14 -20 45 -57 68 -82 71 -75
122 -142 122 -160 0 -20 -47 -68 -56 -58 -4 3 -1 20 5 37 8 25 7 38 -4 60 -22
42 -65 90 -81 90 -24 0 -123 -83 -130 -108 -5 -18 1 -31 27 -58 32 -33 37 -35
79 -29 l45 6 -60 -55 c-66 -60 -80 -68 -69 -33 5 12 8 32 7 45 -1 28 -49 92
-69 92 -8 0 -34 -21 -59 -46 -62 -62 -61 -91 5 -156 48 -49 50 -50 105 -46 30
1 55 0 55 -4 0 -10 -75 -48 -94 -48 -8 0 -50 39 -93 87 -43 47 -102 110 -130
138 -29 29 -53 57 -53 63 0 24 23 22 56 -3 19 -15 39 -25 45 -23 12 4 67 53
187 165 l77 72 -18 30 c-37 63 -8 85 33 24z m-1520 -49 c210 -28 386 -82 580
-178 304 -150 548 -368 757 -676 55 -82 152 -283 192 -400 73 -216 105 -406
105 -635 2 -439 -153 -865 -438 -1205 -189 -226 -369 -367 -628 -493 -224
-109 -384 -155 -631 -182 -175 -19 -230 -19 -408 1 -281 30 -539 117 -777 261
-225 135 -448 350 -601 577 -119 176 -221 413 -267 621 -98 448 -44 889 159
1290 282 556 811 934 1427 1019 192 27 328 27 530 0z m2058 -22 c16 -22 15
-42 -5 -64 -19 -21 -56 -24 -71 -5 -22 28 -23 56 -2 77 23 23 56 20 78 -8z
m-4584 -95 c37 -27 13 -97 -33 -97 -20 0 -51 30 -51 49 0 25 29 61 49 61 9 0
25 -6 35 -13z m4735 -124 c19 -23 20 -29 8 -47 -27 -40 -97 -29 -97 16 0 59
53 78 89 31z m-4437 -132 c-3 -33 0 -42 15 -47 10 -3 54 -23 98 -44 92 -44
162 -70 190 -70 10 0 29 10 42 21 20 20 23 20 29 5 7 -18 7 -18 -44 -110 -45
-83 -65 -96 -56 -39 7 45 -3 55 -96 93 -30 12 -80 34 -112 50 -31 16 -59 26
-61 23 -6 -5 98 -140 170 -222 26 -29 49 -57 51 -61 2 -4 -76 -5 -173 -2 -111
3 -175 1 -175 -5 0 -5 47 -33 105 -62 87 -44 111 -51 138 -46 17 4 37 12 44
17 22 18 33 4 18 -22 -8 -14 -27 -51 -42 -83 -14 -32 -31 -56 -37 -54 -6 2
-12 21 -14 43 -2 21 -8 44 -13 51 -6 6 -57 39 -114 72 -57 33 -106 65 -110 71
-13 22 -61 11 -83 -20 -52 -70 -57 -13 -7 66 l36 56 92 -6 c51 -3 125 -9 165
-12 60 -5 72 -4 72 9 0 13 -68 102 -161 207 -21 24 -39 48 -39 54 0 5 12 33
26 63 30 63 50 65 46 4z m-434 27 c7 -7 12 -24 12 -38 0 -33 -17 -50 -50 -50
-45 0 -63 37 -40 81 12 22 59 26 78 7z m4996 -114 c30 -30 10 -94 -30 -94 -19
0 -54 36 -54 55 0 47 52 71 84 39z m-394 -30 c0 -13 25 -76 41 -104 18 -30 77
-155 83 -177 6 -18 0 -27 -34 -49 -22 -15 -43 -25 -45 -22 -3 3 5 23 17 45 20
36 21 43 9 86 -7 25 -22 55 -32 66 l-19 21 -67 -25 c-103 -39 -109 -49 -71
-116 21 -38 32 -44 88 -52 25 -3 25 -3 -5 -16 -16 -8 -51 -24 -76 -37 -26 -13
-49 -24 -53 -24 -14 0 -5 23 15 39 21 16 21 21 10 69 -19 77 -32 83 -100 46
-75 -41 -85 -63 -60 -128 25 -66 56 -96 107 -103 44 -6 55 -18 25 -27 -44 -12
-79 -15 -89 -8 -6 4 -42 73 -82 153 -39 81 -75 150 -81 154 -16 10 -13 55 3
55 8 0 24 -13 36 -30 12 -16 29 -30 38 -30 9 0 46 14 82 31 36 18 85 42 110
53 25 12 62 31 83 44 37 22 38 25 32 62 -8 47 0 66 21 49 8 -6 14 -17 14 -25z
m-4732 -90 c41 -28 19 -94 -32 -94 -30 0 -46 18 -46 51 0 24 30 59 50 59 3 0
16 -7 28 -16z m5230 -120 c24 -17 30 -62 10 -82 -29 -29 -88 -2 -88 40 0 23
27 58 44 58 6 0 22 -7 34 -16z m-5327 -124 c13 -7 19 -21 19 -45 0 -50 -50
-73 -84 -39 -21 20 -20 53 1 76 18 20 36 23 64 8z m5414 -124 c22 -16 25 -74
4 -87 -25 -15 -57 -10 -73 13 -21 30 -20 44 4 68 23 23 39 25 65 6z m-5477
-138 c7 -7 12 -24 12 -38 0 -33 -17 -50 -50 -50 -33 0 -50 17 -50 50 0 33 17
50 50 50 14 0 31 -5 38 -12z m5542 -128 c11 -11 20 -29 20 -39 0 -41 -59 -68
-88 -39 -20 20 -14 65 10 82 29 20 34 20 58 -4z m-5596 -136 c24 -24 20 -61
-9 -80 -23 -15 -27 -15 -50 0 -26 17 -32 45 -15 77 13 23 53 25 74 3z m5632
-122 c19 -12 22 -50 7 -71 -26 -38 -92 -18 -93 28 0 36 55 64 86 43z m-359
-63 c31 -12 90 -73 115 -122 16 -30 23 -66 26 -129 4 -76 1 -92 -21 -141 -29
-64 -80 -107 -137 -114 -22 -3 -40 -2 -40 2 0 4 13 22 29 40 36 41 48 109 27
157 -8 18 -33 53 -55 78 -59 65 -77 117 -61 176 21 74 38 82 117 53z m-154
-67 c-6 -87 2 -112 57 -172 48 -54 70 -92 70 -125 0 -38 -41 -100 -79 -120
-27 -13 -31 -13 -57 8 -44 33 -63 57 -89 111 -62 128 -30 297 68 356 18 11 33
20 34 20 0 0 -1 -35 -4 -78z m-4677 22 c50 -24 109 -93 133 -158 53 -141 3
-293 -114 -347 -74 -34 -81 -24 -33 47 56 84 46 127 -57 250 -37 44 -40 51
-40 109 0 103 36 135 111 99z m-143 -31 c-12 -56 -8 -124 8 -155 8 -14 31 -45
52 -67 74 -80 79 -141 18 -209 -38 -40 -70 -41 -114 -3 -58 52 -90 124 -95
217 -4 72 -1 88 21 135 29 61 41 77 77 101 37 25 42 22 33 -19z m-321 -7 c12
-17 9 -61 -4 -74 -19 -19 -55 -14 -72 10 -21 30 -20 44 5 69 21 21 56 19 71
-5z m5666 -122 c40 -28 19 -94 -30 -94 -31 0 -50 22 -50 57 0 25 24 53 47 53
6 0 21 -7 33 -16z m-5666 -141 c21 -19 23 -41 5 -64 -33 -43 -87 -28 -87 24 0
55 43 76 82 40z m5660 -137 c12 -17 9 -61 -4 -74 -33 -33 -96 6 -84 53 10 40
66 53 88 21z m-196 -33 c-10 -26 -18 -8 -9 23 5 21 8 24 11 11 2 -10 1 -25 -2
-34z m-4826 -38 c0 -14 -4 -25 -9 -25 -4 0 -6 11 -3 25 2 14 6 25 8 25 2 0 4
-11 4 -25z m-620 -55 c22 -22 25 -42 10 -71 -12 -22 -59 -26 -78 -7 -20 20
-14 65 10 82 29 20 34 20 58 -4z m5604 -136 c22 -21 20 -50 -4 -74 -24 -24
-29 -24 -58 -4 -24 17 -30 62 -10 82 17 17 54 15 72 -4z m-5546 -126 c7 -7 12
-24 12 -38 0 -33 -17 -50 -50 -50 -33 0 -50 17 -50 50 0 33 17 50 50 50 14 0
31 -5 38 -12z m5478 -126 c18 -12 24 -41 12 -67 -18 -40 -67 -40 -88 0 -24 45
34 96 76 67z m-5415 -122 c22 -12 27 -68 7 -88 -19 -19 -55 -14 -72 10 -20 29
-20 52 0 72 18 19 38 20 65 6z m5337 -132 c21 -21 14 -66 -13 -84 -23 -15 -27
-15 -50 0 -29 19 -33 56 -9 80 18 19 55 21 72 4z m-5236 -125 c26 -23 23 -59
-7 -79 -23 -15 -27 -15 -50 0 -27 18 -34 63 -13 84 17 17 48 15 70 -5z m5122
-119 c21 -20 20 -53 -1 -76 -20 -22 -41 -23 -65 -1 -25 22 -23 59 4 77 28 20
43 20 62 0z m-4996 -116 c7 -7 12 -24 12 -38 0 -32 -17 -50 -46 -50 -44 0 -72
58 -42 88 7 7 24 12 38 12 14 0 31 -5 38 -12z m4163 -151 c-13 -13 -15 1 -4
30 7 17 8 17 11 -1 2 -10 -1 -23 -7 -29z m707 31 c28 -28 0 -88 -43 -88 -28 0
-45 18 -45 50 0 33 17 50 50 50 14 0 31 -5 38 -12z m-4149 -137 c-1 -53 -6
-102 -12 -108 -14 -19 -29 -16 -23 5 3 9 6 63 7 119 2 86 4 101 16 91 10 -8
13 -36 12 -107z m3506 89 c3 -5 -3 -10 -15 -10 -12 0 -18 5 -15 10 3 6 10 10
15 10 5 0 12 -4 15 -10z m-4091 -53 c36 -27 14 -97 -31 -97 -7 0 -22 9 -33 20
-49 49 8 118 64 77z m4075 -48 c37 -37 56 -49 69 -44 11 4 6 -6 -13 -27 -17
-18 -32 -35 -34 -38 -2 -3 0 6 4 19 6 19 -1 31 -36 67 -24 24 -52 44 -62 44
-16 0 -17 3 -7 15 18 22 23 20 79 -36z m50 22 c-15 -5 -22 6 -14 19 6 9 10 9
16 -1 5 -8 4 -15 -2 -18z m-3444 -11 c15 -17 16 -20 3 -20 -9 0 -18 9 -21 20
-3 11 -4 20 -3 20 2 0 11 -9 21 -20z m3512 -12 c-3 -8 -6 -5 -6 6 -1 11 2 17
5 13 3 -3 4 -12 1 -19z m-3711 -18 l1 -31 -24 23 -25 23 24 6 c13 4 23 7 23 8
0 1 0 -13 1 -29z m4096 -47 c35 -32 12 -85 -37 -85 -48 0 -66 48 -33 90 14 17
48 15 70 -5z m-692 -23 c0 -5 -4 -10 -9 -10 -6 0 -13 5 -16 10 -3 6 1 10 9 10
9 0 16 -4 16 -10z m-26 -114 c33 -40 43 -46 64 -41 24 6 24 5 -6 -19 -33 -29
-44 -32 -37 -13 8 19 -84 119 -103 112 -12 -4 -11 -1 3 15 16 18 21 19 30 8 5
-8 28 -36 49 -62z m-3041 57 c-35 -7 -66 -67 -60 -114 6 -47 1 -50 -17 -7 -25
59 15 130 73 127 23 -2 23 -2 4 -6z m3090 -7 c3 -8 0 -17 -7 -19 -10 -4 -12 1
-9 14 6 23 9 24 16 5z m-3739 -18 c23 -32 20 -55 -9 -74 -51 -33 -104 21 -71
71 21 32 60 33 80 3z m751 -37 c7 -31 -6 -70 -30 -94 -17 -18 -99 -24 -109 -9
-3 5 8 7 23 4 40 -6 68 13 87 56 11 28 12 43 5 60 -15 31 -14 37 3 23 8 -7 17
-25 21 -40z m3494 -73 c15 -25 14 -29 -8 -52 -28 -30 -47 -33 -73 -9 -22 20
-23 42 -2 71 22 31 63 26 83 -10z m-687 -98 c26 0 22 -15 -7 -28 -20 -9 -25
-9 -25 3 0 8 -9 19 -19 25 -21 10 -51 4 -51 -11 0 -5 -7 -9 -15 -9 -8 0 -15 7
-15 15 0 8 6 12 13 10 6 -3 19 0 27 5 13 9 11 13 -9 31 -17 14 -26 16 -31 9
-5 -7 -10 -3 -13 11 -11 42 4 39 66 -11 34 -28 70 -50 79 -50z m-3374 12 c27
-35 2 -82 -43 -82 -24 0 -55 33 -55 57 0 7 9 22 21 34 22 22 55 19 77 -9z
m900 -79 c-11 -18 -17 -33 -12 -33 4 0 0 -8 -8 -17 -22 -25 -27 -45 -16 -66 8
-15 4 -15 -32 4 -44 23 -48 27 -22 25 11 -1 27 18 47 56 25 49 28 61 18 77
-12 19 -11 19 16 3 l28 -16 -19 -33z m2146 31 c4 -9 4 -19 1 -22 -3 -3 -5 0
-5 6 0 7 -7 12 -15 12 -8 0 -15 5 -15 10 0 16 27 11 34 -6z m-92 -26 c-35 -35
14 -128 68 -128 19 0 36 9 49 26 15 20 21 22 21 10 0 -20 -32 -49 -63 -57 -46
-12 -107 42 -107 96 0 32 17 65 32 65 9 0 9 -3 0 -12z m328 2 c13 -9 12 -12
-4 -25 -28 -21 -34 -19 -28 10 5 27 10 30 32 15z m585 -20 c25 -28 13 -65 -25
-79 -26 -9 -34 -7 -50 9 -24 24 -25 48 -3 72 21 24 55 23 78 -2z m-2932 -60
c-3 -11 -7 -20 -8 -20 -1 0 -5 9 -8 20 -3 12 0 20 8 20 8 0 11 -8 8 -20z m225
-10 c-9 -14 -10 -24 -3 -34 47 -63 48 -67 37 -91 -9 -20 -19 -25 -44 -24 l-33
1 30 7 c39 8 43 35 11 68 -28 27 -34 61 -14 81 19 19 29 14 16 -8z m-980 -6
c17 -12 22 -24 20 -46 -4 -43 -30 -57 -66 -38 -36 21 -41 62 -10 84 28 20 28
20 56 0z m1052 -4 c0 -5 -2 -10 -4 -10 -3 0 -8 5 -11 10 -3 6 -1 10 4 10 6 0
11 -4 11 -10z m1368 -65 c13 -16 22 -39 22 -59 0 -38 -33 -87 -58 -85 -15 1
-15 2 -1 6 17 4 39 43 39 69 0 33 -41 80 -85 96 -12 5 -3 6 20 3 27 -3 47 -13
63 -30z m-1668 15 c0 -5 -4 -10 -10 -10 -5 0 -10 5 -10 10 0 6 5 10 10 10 6 0
10 -4 10 -10z m1524 -35 c-9 -37 2 -70 37 -104 35 -35 17 -43 -24 -11 -32 25
-43 72 -27 111 15 36 23 38 14 4z m-863 2 c-42 -21 -39 -32 18 -79 11 -10 21
-27 21 -37 0 -22 -25 -51 -43 -51 -7 0 -4 5 6 11 26 15 21 45 -13 69 -47 34
-38 100 15 100 18 0 18 -1 -4 -13z m2067 1 c29 -29 -1 -88 -44 -88 -43 0 -61
50 -31 88 12 15 59 16 75 0z m-2018 -8 c0 -5 -5 -10 -11 -10 -5 0 -7 5 -4 10
3 6 8 10 11 10 2 0 4 -4 4 -10z m-530 -32 c0 -5 -4 -8 -10 -8 -5 0 -10 10 -10
23 0 18 2 19 10 7 5 -8 10 -18 10 -22z m839 -5 c33 -41 36 -68 11 -108 -26
-42 -49 -48 -24 -6 22 38 12 93 -23 121 -24 18 -24 20 -5 20 11 0 30 -12 41
-27z m231 -7 c0 -18 3 -54 6 -80 6 -43 9 -46 37 -46 17 0 40 9 53 21 l23 21
-6 -21 c-6 -23 -23 -29 -100 -33 -42 -2 -50 -1 -40 10 19 19 4 132 -19 149
-16 12 -15 13 14 13 30 0 32 -2 32 -34z m-360 -1 c-16 -20 -7 -90 15 -115 9
-10 31 -21 49 -23 30 -4 29 -4 -6 -5 -55 -3 -91 32 -91 86 0 27 7 50 18 62 21
23 34 18 15 -5z m-1418 -22 c36 -33 17 -83 -33 -83 -43 0 -67 44 -43 79 18 25
51 27 76 4z m1137 -65 c12 -15 11 -18 -3 -18 -10 0 -16 8 -16 22 0 12 1 19 3
17 1 -2 9 -12 16 -21z m1891 -8 c11 -11 20 -27 20 -35 0 -20 -36 -55 -57 -55
-23 0 -53 29 -53 51 0 21 37 59 57 59 7 0 22 -9 33 -20z m-2798 -67 c22 -20
23 -46 2 -67 -24 -24 -61 -20 -80 9 -15 23 -15 27 0 50 19 29 51 32 78 8z
m2574 -68 c15 -23 15 -27 0 -50 -28 -43 -96 -29 -96 19 0 52 67 74 96 31z
m-2338 -41 c26 -18 28 -50 5 -76 -32 -35 -85 -12 -85 37 0 27 23 55 47 55 6 0
21 -7 33 -16z m2084 -51 c10 -9 18 -24 18 -35 0 -22 -34 -58 -55 -58 -8 0 -24
9 -35 20 -11 11 -20 27 -20 35 0 20 36 55 57 55 9 0 25 -7 35 -17z m-1817 -67
c21 -61 -70 -89 -97 -30 -11 24 -9 29 15 50 33 28 67 20 82 -20z m1566 -17
c31 -31 4 -88 -43 -89 -51 -1 -66 84 -18 103 27 10 40 7 61 -14z m-1321 -29
c11 -11 20 -27 20 -35 0 -18 -35 -55 -53 -55 -24 0 -57 31 -57 55 0 24 33 55
57 55 7 0 22 -9 33 -20z m1058 -22 c22 -22 14 -67 -13 -80 -38 -17 -75 3 -75
41 0 44 58 69 88 39z m-788 -27 c14 -27 13 -47 -6 -65 -30 -31 -94 -7 -94 35
0 45 79 69 100 30z m528 -3 c17 -17 15 -54 -4 -72 -24 -24 -61 -20 -80 9 -15
23 -15 27 0 50 18 27 63 34 84 13z m-270 -10 c22 -22 14 -67 -13 -80 -37 -17
-75 3 -75 40 0 15 5 33 12 40 15 15 61 15 76 0z"/>
<path d="M3658 6162 c-14 -2 -47 -22 -71 -45 -40 -38 -46 -48 -52 -100 -12
-92 30 -207 91 -254 32 -24 46 -28 96 -26 71 2 105 23 136 86 27 54 28 122 3
195 -21 62 -70 122 -100 122 -11 0 -22 4 -25 9 -7 11 -43 17 -78 13z"/>
<path d="M2048 5484 c-45 -24 -51 -46 -22 -87 36 -54 92 -107 107 -102 20 9
57 82 57 115 0 22 -9 39 -32 61 -36 32 -68 36 -110 13z"/>
<path d="M3550 5323 c-171 -12 -398 -61 -507 -109 -17 -8 -34 -14 -38 -14 -19
0 -231 -110 -305 -158 -125 -81 -195 -137 -286 -229 -223 -225 -361 -449 -452
-733 -51 -157 -59 -196 -77 -350 -18 -155 -18 -210 -1 -376 33 -308 128 -574
297 -823 134 -200 339 -395 547 -523 325 -199 698 -289 1076 -258 471 38 887
244 1199 594 243 273 385 582 437 950 24 166 25 279 5 441 -24 197 -80 399
-150 543 -19 40 -35 75 -35 77 0 14 -120 202 -170 265 -72 92 -86 107 -180
200 -188 184 -433 333 -692 421 -183 61 -468 97 -668 82z m290 -381 c121 -47
157 -213 67 -307 -42 -44 -234 -146 -218 -116 6 11 23 28 38 38 15 10 55 45
90 79 55 53 63 65 63 98 0 33 -12 65 -38 104 -5 7 -25 17 -45 21 -106 24 -191
-105 -111 -168 31 -24 62 -17 83 20 26 47 48 33 29 -19 -20 -52 -87 -77 -160
-59 -57 15 -86 142 -52 227 35 87 147 123 254 82z m-258 -341 c36 -37 39 -43
32 -78 -6 -38 -26 -63 -51 -63 -17 0 -16 5 3 36 16 23 15 26 -1 44 -24 26 -70
25 -96 -1 -18 -18 -21 -29 -16 -75 3 -30 1 -54 -3 -54 -19 0 -41 50 -47 104
-6 53 -4 57 30 91 50 50 95 49 149 -4z m33 -431 c3 -5 -4 -26 -15 -47 -11 -22
-20 -57 -20 -82 l0 -44 -21 19 c-11 10 -25 27 -31 37 -13 25 7 82 39 107 29
22 39 25 48 10z m103 -82 c3 -11 18 -45 34 -74 15 -30 28 -56 28 -59 0 -11
-47 -4 -68 11 -31 22 -44 60 -37 106 7 42 33 52 43 16z m616 -294 c4 -15 6
-72 5 -128 l-2 -101 113 -7 c61 -4 117 -11 123 -16 7 -5 25 -12 40 -16 36 -8
116 -66 143 -103 59 -80 59 -78 59 -353 l0 -255 -26 -40 c-38 -58 -101 -112
-167 -141 -45 -20 -80 -27 -167 -32 l-110 -7 -6 -50 c-12 -98 -30 -161 -63
-225 l-33 -65 -583 0 -583 0 -23 45 c-68 135 -67 126 -71 863 l-3 657 674 0
674 0 6 -26z"/>
<path d="M3348 3586 c-48 -25 -70 -44 -89 -75 l-19 -31 39 25 c22 13 51 27 65
31 15 3 29 10 32 15 3 5 28 9 55 9 50 0 104 -25 156 -73 13 -11 26 -17 30 -14
12 12 -21 59 -66 93 -40 31 -50 34 -110 34 -38 0 -78 -6 -93 -14z"/>
<path d="M3885 3591 c-40 -18 -86 -67 -95 -100 l-10 -34 28 26 c60 58 178 98
197 67 3 -5 14 -10 23 -10 21 0 94 -38 104 -53 4 -6 10 -9 13 -5 11 11 -24 55
-68 83 -32 22 -56 29 -107 31 -36 2 -74 0 -85 -5z"/>
<path d="M4378 3533 c17 -2 47 -2 65 0 17 2 3 4 -33 4 -36 0 -50 -2 -32 -4z"/>
<path d="M4600 3490 c0 -5 5 -10 11 -10 5 0 7 5 4 10 -3 6 -8 10 -11 10 -2 0
-4 -4 -4 -10z"/>
<path d="M4631 3477 c2 -1 14 -11 27 -21 12 -11 22 -16 22 -13 0 10 -31 37
-42 37 -6 0 -9 -1 -7 -3z"/>
<path d="M4351 3416 c10 -10 110 -15 131 -6 17 6 2 9 -56 9 -44 1 -77 -1 -75
-3z"/>
<path d="M4525 3400 c-3 -5 1 -10 10 -10 9 0 13 5 10 10 -3 6 -8 10 -10 10 -2
0 -7 -4 -10 -10z"/>
<path d="M4722 3396 c7 -8 15 -12 17 -11 5 6 -10 25 -20 25 -5 0 -4 -6 3 -14z"/>
<path d="M4347 3374 c-8 -13 -9 -73 -8 -363 l1 -254 105 5 c99 4 108 7 143 35
28 23 41 43 54 89 22 79 22 265 0 359 -15 62 -21 72 -58 98 -36 25 -52 29
-136 34 -53 3 -98 2 -101 -3z"/>
<path d="M4600 3371 c0 -4 11 -18 25 -31 14 -13 25 -20 25 -15 0 4 -11 18 -25
31 -14 13 -25 20 -25 15z"/>
<path d="M3855 3293 c-30 -8 -64 -33 -86 -64 -16 -22 -17 -27 -5 -23 9 3 16 9
16 13 0 14 78 41 119 41 58 0 110 -35 147 -97 20 -35 34 -42 34 -18 0 12 8 15
33 12 17 -2 24 -2 15 0 -9 2 -22 11 -29 19 -9 11 -8 18 6 34 18 20 17 20 -11
20 -17 0 -49 14 -78 35 -40 29 -58 35 -95 34 -25 -1 -55 -4 -66 -6z"/>
<path d="M4672 3240 c0 -14 2 -19 5 -12 2 6 2 18 0 25 -3 6 -5 1 -5 -13z"/>
<path d="M4684 3065 c0 -55 1 -76 3 -47 2 29 2 74 0 100 -2 26 -3 2 -3 -53z"/>
<path d="M4671 2894 c0 -11 3 -14 6 -6 3 7 2 16 -1 19 -3 4 -6 -2 -5 -13z"/>
<path d="M4315 2730 c3 -5 12 -7 20 -3 21 7 19 13 -6 13 -11 0 -18 -4 -14 -10z"/>
<path d="M4453 2733 c9 -2 23 -2 30 0 6 3 -1 5 -18 5 -16 0 -22 -2 -12 -5z"/>
<path d="M4302 2520 c0 -14 2 -19 5 -12 2 6 2 18 0 25 -3 6 -5 1 -5 -13z"/>
<path d="M4291 2454 c0 -11 3 -14 6 -6 3 7 2 16 -1 19 -3 4 -6 -2 -5 -13z"/>
<path d="M920 1835 c0 -5 5 -17 10 -25 5 -8 10 -10 10 -5 0 6 -5 17 -10 25 -5
8 -10 11 -10 5z"/>
</g>
</svg>
